<svg width="215" height="66" viewBox="0 0 215 66" fill="none" xmlns="http://www.w3.org/2000/svg">
<rect width="215" height="66" fill="white"/>
<mask id="mask0_15_75" style="mask-type:luminance" maskUnits="userSpaceOnUse" x="0" y="6" width="78" height="60">
<path d="M78.0001 6H0V66H78.0001V6Z" fill="white"/>
</mask>
<g mask="url(#mask0_15_75)">
<path opacity="0.8" d="M58.4468 45.9405C65.8733 46.7097 72.7875 38.704 73.89 28.0593C74.9925 17.4146 69.8659 8.16189 62.4394 7.3927C55.0129 6.62352 48.0987 14.6292 46.9962 25.2739C45.8937 35.9185 51.0203 45.1713 58.4468 45.9405Z" fill="#FDC040"/>
<path d="M47.3154 51.0434C54.3812 48.631 57.3061 38.4653 53.8483 28.3377C50.3905 18.2101 41.8595 11.9557 34.7938 14.368C27.728 16.7804 24.8031 26.9461 28.2609 37.0737C31.7187 47.2013 40.2497 53.4558 47.3154 51.0434Z" fill="#FDC040"/>
<path d="M27 39H75.0709C75.4546 39.1667 76.337 39.8 76.7973 41C77.3728 42.5 79 64.5 51.5 60C29.8624 60 24.8134 59.3333 25.0052 59C29 58 29.5 54 30 51C30.5 48 27 39 27 39Z" fill="#81B13D"/>
<path d="M63.1171 18.4323C62.4859 18.4323 61.9745 18.9439 61.9745 19.5749V19.7574C61.9745 20.3886 62.4859 20.9 63.1171 20.9C63.7483 20.9 64.2597 20.3886 64.2597 19.7574V19.5749C64.2597 18.9437 63.7483 18.4323 63.1171 18.4323Z" fill="#253D4E"/>
<path d="M66.0847 23.5298C65.4536 23.5298 64.9421 24.0412 64.9421 24.6723V24.8548C64.9421 25.4859 65.4536 25.9974 66.0847 25.9974C66.7159 25.9974 67.2273 25.486 67.2273 24.8548V24.6723C67.2273 24.0412 66.7159 23.5298 66.0847 23.5298Z" fill="#253D4E"/>
<path d="M41.0669 22.4568L40.9823 22.2949C40.6903 21.7353 39.9997 21.5185 39.4408 21.8107C38.8813 22.1028 38.6646 22.7929 38.9566 23.3523L39.0412 23.5142C39.2448 23.9048 39.6429 24.1285 40.0549 24.1285C40.2331 24.1285 40.4138 24.0867 40.5827 23.9984C41.1421 23.7063 41.3589 23.0162 41.0669 22.4568Z" fill="#253D4E"/>
<path d="M46.0569 25.6016L45.9723 25.4397C45.6803 24.8801 44.9899 24.6633 44.4308 24.9555C43.8713 25.2476 43.6546 25.9377 43.9466 26.4971L44.0312 26.6591C44.2348 27.0497 44.6328 27.2733 45.0449 27.2733C45.2231 27.2733 45.4038 27.2316 45.5727 27.1432C46.1321 26.8512 46.3489 26.161 46.0569 25.6016Z" fill="#253D4E"/>
<path d="M38.9474 48.3339L35.5489 44.9352C35.1026 44.489 34.3791 44.4889 33.9332 44.9351C33.4868 45.3813 33.4868 46.1048 33.933 46.5508L37.3315 49.9495C37.5547 50.1727 37.8469 50.2842 38.1394 50.2842C38.4317 50.2842 38.7242 50.1727 38.9473 49.9497C39.3936 49.5034 39.3936 48.78 38.9474 48.3339Z" fill="#253D4E"/>
<path d="M49.0454 46.2046C48.6796 45.6906 47.9664 45.5702 47.452 45.9364L35.5912 54.3806C35.0772 54.7465 34.9571 55.46 35.3231 55.974C35.5459 56.2872 35.8975 56.454 36.2548 56.454C36.4839 56.454 36.7155 56.3852 36.9164 56.2421L48.7772 47.7979C49.2912 47.432 49.4113 46.7186 49.0454 46.2046Z" fill="#253D4E"/>
<path d="M53.2385 47.928C52.8729 47.414 52.1595 47.2937 51.6451 47.6599L47.0923 50.9012C46.5782 51.2674 46.4583 51.9807 46.8242 52.4947C47.0471 52.8079 47.3987 52.9748 47.7559 52.9748C47.9851 52.9748 48.2165 52.9059 48.4176 52.7627L52.9704 49.5214C53.4845 49.1555 53.6044 48.4421 53.2385 47.928Z" fill="#253D4E"/>
<path d="M77.7844 42.7438C77.4151 42.2319 76.7012 42.1164 76.1892 42.4852L75.8086 42.7596C75.8102 42.6616 75.8124 42.5638 75.8124 42.4656C75.8124 41.3756 75.3883 40.35 74.6159 39.5755C73.8437 38.8052 72.818 38.3811 71.7281 38.3811H71.3899C72.6438 35.9583 73.2805 33.0409 73.2805 29.673C73.2805 23.0681 70.8046 15.8485 66.973 11.2805C66.5673 10.7969 65.8467 10.7336 65.3633 11.1394C64.8799 11.545 64.8167 12.2657 65.2222 12.7491C68.7293 16.93 70.9955 23.5732 70.9955 29.673C70.9955 33.1884 70.2398 36.1143 68.7495 38.3811H66.4873L67.4924 37.6655C68.0066 37.2996 68.1265 36.5861 67.7606 36.0721C67.3948 35.5581 66.6817 35.4378 66.1672 35.804L62.5475 38.3811H55.7511C56.436 34.9117 55.7226 31.0358 53.6527 27.0709C52.171 24.2336 50.0667 21.4882 47.6461 19.1622C50.1393 12.8559 54.2654 8.82164 58.2858 8.82164C59.5 8.82164 60.7236 9.17492 61.9224 9.87205C62.468 10.1889 63.1674 10.0038 63.4846 9.45844C63.8016 8.91289 63.6165 8.21348 63.071 7.8963C61.5187 6.99396 59.9087 6.53647 58.2858 6.53647C53.4219 6.53647 48.7449 10.7159 45.8368 17.5516C44.8463 16.7366 43.8198 15.9955 42.7741 15.3498C37.852 12.3099 33.1911 11.6539 29.6505 13.5023C26.3847 15.209 24.2929 18.9934 23.76 24.1583C23.6951 24.786 24.1515 25.3474 24.7791 25.412C25.4083 25.4778 25.9683 25.0203 26.0328 24.3928C26.4845 20.0158 28.145 16.8674 30.7082 15.5277C36.9489 12.2697 47.2553 19.7574 51.627 28.1286C53.5714 31.8531 54.1696 35.2973 53.4126 38.3812H40.6021C40.5989 38.3812 40.5959 38.3812 40.5927 38.3812H34.7378L32.8202 36.4637C32.3738 36.0176 31.6505 36.0176 31.2043 36.4637C30.7581 36.91 30.7581 37.6334 31.2043 38.0796L31.5058 38.3811H28.369C27.0963 35.4885 26.2596 32.1669 26.0002 28.9447C25.9496 28.3158 25.3993 27.8455 24.7697 27.8975C24.1407 27.9481 23.6719 28.4989 23.7225 29.128C23.9332 31.7465 24.4737 34.352 25.3079 36.811C22.0514 34.036 17.7978 32.5447 13.4183 32.7826C13.0101 32.8048 12.6447 33.0435 12.4606 33.4084C10.7423 36.8107 10.2592 40.651 10.9718 44.2878C10.9785 44.3981 11.0003 44.504 11.036 44.6034C11.2599 45.6411 11.5829 46.6601 12.0021 47.6462C7.11162 48.4047 2.76873 51.2873 0.165617 55.5812C-0.0462945 55.9307 -0.0551305 56.3669 0.142156 56.725C1.98324 60.0663 4.88526 62.6334 8.29458 64.0961C8.38553 64.1494 8.48044 64.1898 8.57809 64.2157C10.4609 64.9833 12.4912 65.4171 14.5791 65.4602C14.6935 65.4626 14.8067 65.4637 14.9208 65.4637C15.7335 65.4637 16.5387 65.4023 17.3319 65.287C17.4066 65.2825 17.4808 65.2729 17.5528 65.2542C20.9111 64.7199 24.0333 63.1778 26.4982 60.8607C26.5541 60.8691 26.6108 60.8749 26.669 60.8749H31.796C32.4271 60.8749 32.9386 60.3635 32.9386 59.7323C32.9386 59.1012 32.4271 58.5897 31.796 58.5897H28.5154C28.8152 58.1833 29.0993 57.7627 29.3638 57.3263C29.3719 57.3129 29.3784 57.2989 29.3859 57.2854C29.3927 57.273 29.401 57.2618 29.4074 57.249C32.0687 51.9766 31.7675 45.6531 28.6405 40.6662H33.7909L36.9017 43.777C37.1248 44 37.4173 44.1115 37.7097 44.1115C38.002 44.1115 38.2945 44 38.5177 43.777C38.9639 43.3306 38.9639 42.6073 38.5177 42.161L37.0229 40.6662H40.1242L44.3661 44.9081C44.5893 45.1312 44.8818 45.2427 45.1741 45.2427C45.4665 45.2427 45.759 45.1312 45.9822 44.9081C46.4284 44.4618 46.4284 43.7384 45.9822 43.2922L43.3563 40.6664H54.2709L54.2747 40.6667L54.2785 40.6664H59.3381L56.8436 42.4423C56.3294 42.8082 56.2095 43.5216 56.5754 44.0356C56.7983 44.3489 57.1499 44.5157 57.5072 44.5157C57.7363 44.5157 57.9677 44.4468 58.1688 44.3036L63.2778 40.6662H69.3448L69.3468 40.6664L69.3494 40.6662H71.7289C72.2095 40.6662 72.6621 40.8535 73.0009 41.1912C73.3408 41.532 73.528 41.9846 73.528 42.4654C73.528 43.1533 73.4845 43.831 73.4005 44.4965L65.0109 50.5458C64.4992 50.9149 64.3834 51.629 64.7524 52.141C64.9759 52.4507 65.3255 52.6154 65.6802 52.6154C65.9117 52.6154 66.1454 52.5452 66.3476 52.3995L72.5837 47.9031C71.3378 51.3701 68.9362 54.2903 65.8455 56.1973L53.1034 43.4552C52.657 43.0091 51.9337 43.0091 51.4874 43.4552C51.0412 43.9016 51.0412 44.6249 51.4874 45.0711L63.7175 57.3012C62.0614 58.0087 60.2636 58.4461 58.3797 58.5591L53.3984 53.5781C52.9524 53.132 52.2289 53.1318 51.7827 53.5782C51.3365 54.0244 51.3365 54.7478 51.7828 55.194L55.1784 58.5894H43.9927L42.1595 56.7563C41.7132 56.3102 40.9898 56.3102 40.5436 56.7563C40.0974 57.2026 40.0974 57.926 40.5436 58.3722L40.7608 58.5894H36.5563C35.9251 58.5894 35.4137 59.1009 35.4137 59.732C35.4137 60.3632 35.9251 60.8746 36.5563 60.8746H43.045L45.622 63.4517C45.8452 63.6747 46.1377 63.7862 46.4301 63.7862C46.7224 63.7862 47.0149 63.6747 47.2381 63.4517C47.6843 63.0053 47.6843 62.282 47.2381 61.8357L46.2769 60.8746H57.4016C60.2821 60.8746 63.0099 60.209 65.4402 59.0247L66.4 59.9845C66.6232 60.2075 66.9157 60.319 67.208 60.319C67.5004 60.319 67.7929 60.2075 68.0161 59.9845C68.4623 59.5381 68.4623 58.8148 68.0161 58.3685L67.4987 57.8512C71.6182 55.1391 74.5891 50.8196 75.5107 45.7919L77.526 44.3388C78.0376 43.9698 78.1534 43.2558 77.7844 42.7438ZM26.56 41.6511C26.6882 41.8472 26.8094 42.0466 26.9273 42.2476L24.0351 47.9865L20.7327 42.9333L23.0439 37.9277C24.4089 38.939 25.6062 40.1917 26.56 41.6511ZM22.7839 50.249L16.4849 50.5662C16.0603 50.0764 15.6653 49.5563 15.3057 49.006C14.5544 47.8563 13.9811 46.6199 13.5862 45.3374L19.5109 45.2407L22.7839 50.249ZM21.0909 36.706L19.2577 40.6761L15.6142 35.1009C17.5409 35.272 19.4011 35.825 21.0909 36.706ZM13.7006 36.3497L18.0332 42.9793L13.0789 43.0602C12.7654 40.8233 12.9692 38.5215 13.7006 36.3497ZM13.11 49.8075C13.2019 49.9579 13.2959 50.1076 13.3927 50.256C13.9004 51.0328 14.4681 51.7581 15.0861 52.4301C15.1312 52.4888 15.1819 52.5427 15.2372 52.5916C16.2635 53.6786 17.4244 54.6186 18.6846 55.3922L12.6731 55.2686L9.83889 50.5283C10.8884 50.1658 11.9848 49.9219 13.11 49.8075ZM7.72694 51.4489L9.97737 55.213L3.31565 55.0761C4.54324 53.5767 6.04521 52.348 7.72694 51.4489ZM8.46017 61.6595C6.43628 60.6563 4.65065 59.1895 3.2704 57.3606L11.1882 57.5235L8.46017 61.6595ZM16.5789 63.0819C15.9349 63.1564 15.2826 63.1886 14.6255 63.1756C13.2524 63.1471 11.908 62.9229 10.6266 62.5254L13.8891 57.5789L19.8706 57.7019L16.5789 63.0819ZM19.6945 62.3682L22.5162 57.7564L25.9846 57.8277C26.0559 57.8343 26.1275 57.839 26.199 57.8446C24.4796 59.9319 22.2182 61.491 19.6945 62.3682ZM26.1181 55.545C23.467 55.2852 20.9466 54.3022 18.8299 52.7362L24.2313 52.4641L26.2464 55.5476L26.1181 55.545ZM28.1658 54.3075L25.4798 50.1974L28.1458 44.9072C29.1776 47.9357 29.1947 51.2504 28.1658 54.3075Z" fill="#253D4E"/>
<path d="M66.5711 44.7026C66.2019 44.1907 65.4878 44.0753 64.9761 44.4442L60.9498 47.3475C60.438 47.7165 60.3223 48.4305 60.6914 48.9425C60.9147 49.2522 61.2644 49.4169 61.619 49.4169C61.8507 49.4169 62.0843 49.3467 62.2864 49.2009L66.3128 46.2977C66.8245 45.9287 66.9403 45.2146 66.5711 44.7026Z" fill="#253D4E"/>
</g>
<path d="M95.0333 61L95.0224 55.9424L92.5154 60.128H91.8832L89.3762 56.0078V61H88.0246V53.37H89.1909L92.2211 58.4276L95.1968 53.37H96.3631L96.374 61H95.0333ZM104.474 59.2342H100.659L99.9065 61H98.4459L101.879 53.37H103.275L106.719 61H105.237L104.474 59.2342ZM104.005 58.1224L102.566 54.787L101.138 58.1224H104.005ZM113.772 61L112.213 58.7655C112.147 58.7728 112.049 58.7764 111.919 58.7764H110.196V61H108.779V53.37H111.919C112.58 53.37 113.154 53.479 113.641 53.697C114.135 53.915 114.513 54.2275 114.774 54.6344C115.036 55.0413 115.167 55.5246 115.167 56.0841C115.167 56.6582 115.025 57.1523 114.742 57.5665C114.465 57.9807 114.066 58.2895 113.543 58.493L115.298 61H113.772ZM113.739 56.0841C113.739 55.5972 113.579 55.223 113.259 54.9614C112.939 54.6998 112.471 54.569 111.853 54.569H110.196V57.6101H111.853C112.471 57.6101 112.939 57.4793 113.259 57.2177C113.579 56.9488 113.739 56.571 113.739 56.0841ZM119.283 54.569H116.755V53.37H123.229V54.569H120.7V61H119.283V54.569ZM135.208 61.1199L134.248 60.1934C133.536 60.8038 132.682 61.109 131.687 61.109C131.156 61.109 130.68 61.0218 130.259 60.8474C129.837 60.673 129.507 60.4332 129.267 60.128C129.027 59.8155 128.907 59.4631 128.907 59.0707C128.907 58.5984 129.045 58.1842 129.322 57.8281C129.598 57.4648 130.048 57.1087 130.673 56.7599C130.368 56.4547 130.15 56.1713 130.019 55.9097C129.888 55.6408 129.823 55.3647 129.823 55.0813C129.823 54.5436 130.023 54.1112 130.422 53.7842C130.829 53.4499 131.367 53.2828 132.036 53.2828C132.653 53.2828 133.147 53.4354 133.518 53.7406C133.889 54.0385 134.074 54.4455 134.074 54.9614C134.074 55.3538 133.95 55.7026 133.703 56.0078C133.464 56.313 133.068 56.6218 132.515 56.9343L134.161 58.5039C134.343 58.1478 134.485 57.7191 134.586 57.2177L135.687 57.5774C135.542 58.2532 135.313 58.8345 135 59.3214L135.96 60.237L135.208 61.1199ZM132.036 54.2529C131.738 54.2529 131.502 54.3292 131.327 54.4818C131.153 54.6271 131.066 54.8197 131.066 55.0595C131.066 55.2339 131.113 55.401 131.207 55.5609C131.302 55.7135 131.483 55.9242 131.752 56.1931C132.188 55.9533 132.49 55.7462 132.657 55.5718C132.831 55.3901 132.919 55.1939 132.919 54.9832C132.919 54.7579 132.839 54.5799 132.679 54.4491C132.526 54.3183 132.312 54.2529 132.036 54.2529ZM131.785 59.9972C132.417 59.9972 132.969 59.8046 133.442 59.4195L131.425 57.4902C130.989 57.73 130.68 57.9625 130.499 58.1878C130.324 58.4058 130.237 58.6529 130.237 58.929C130.237 59.2487 130.379 59.5067 130.662 59.7029C130.946 59.8991 131.32 59.9972 131.785 59.9972ZM147.584 57.0978H148.924V60.1389C148.532 60.4514 148.074 60.6912 147.551 60.8583C147.028 61.0254 146.49 61.109 145.938 61.109C145.16 61.109 144.459 60.9419 143.834 60.6076C143.209 60.2661 142.719 59.7974 142.363 59.2015C142.006 58.6056 141.828 57.9335 141.828 57.185C141.828 56.4365 142.006 55.7644 142.363 55.1685C142.719 54.5726 143.209 54.1076 143.834 53.7733C144.466 53.4318 145.175 53.261 145.96 53.261C146.599 53.261 147.18 53.3664 147.704 53.5771C148.227 53.7878 148.666 54.0967 149.022 54.5036L148.129 55.3756C147.547 54.7943 146.846 54.5036 146.025 54.5036C145.487 54.5036 145.008 54.6162 144.586 54.8415C144.172 55.0668 143.845 55.3829 143.605 55.7898C143.373 56.1967 143.256 56.6618 143.256 57.185C143.256 57.6937 143.373 58.1515 143.605 58.5584C143.845 58.9653 144.172 59.2851 144.586 59.5176C145.008 59.7501 145.484 59.8664 146.014 59.8664C146.61 59.8664 147.133 59.7356 147.584 59.474V57.0978ZM156.875 61L155.317 58.7655C155.251 58.7728 155.153 58.7764 155.022 58.7764H153.3V61H151.883V53.37H155.022C155.684 53.37 156.258 53.479 156.745 53.697C157.239 53.915 157.617 54.2275 157.878 54.6344C158.14 55.0413 158.271 55.5246 158.271 56.0841C158.271 56.6582 158.129 57.1523 157.846 57.5665C157.569 57.9807 157.17 58.2895 156.647 58.493L158.401 61H156.875ZM156.843 56.0841C156.843 55.5972 156.683 55.223 156.363 54.9614C156.043 54.6998 155.575 54.569 154.957 54.569H153.3V57.6101H154.957C155.575 57.6101 156.043 57.4793 156.363 57.2177C156.683 56.9488 156.843 56.571 156.843 56.0841ZM164.51 61.109C163.733 61.109 163.032 60.9419 162.407 60.6076C161.782 60.2661 161.291 59.7974 160.935 59.2015C160.579 58.5984 160.401 57.9262 160.401 57.185C160.401 56.4438 160.579 55.7753 160.935 55.1794C161.291 54.5763 161.782 54.1076 162.407 53.7733C163.032 53.4318 163.733 53.261 164.51 53.261C165.288 53.261 165.989 53.4318 166.614 53.7733C167.239 54.1076 167.729 54.5726 168.086 55.1685C168.442 55.7644 168.62 56.4365 168.62 57.185C168.62 57.9335 168.442 58.6056 168.086 59.2015C167.729 59.7974 167.239 60.2661 166.614 60.6076C165.989 60.9419 165.288 61.109 164.51 61.109ZM164.51 59.8664C165.019 59.8664 165.477 59.7538 165.884 59.5285C166.291 59.296 166.61 58.9762 166.843 58.5693C167.075 58.1551 167.192 57.6937 167.192 57.185C167.192 56.6763 167.075 56.2185 166.843 55.8116C166.61 55.3974 166.291 55.0777 165.884 54.8524C165.477 54.6199 165.019 54.5036 164.51 54.5036C164.002 54.5036 163.544 54.6199 163.137 54.8524C162.73 55.0777 162.41 55.3974 162.178 55.8116C161.945 56.2185 161.829 56.6763 161.829 57.185C161.829 57.6937 161.945 58.1551 162.178 58.5693C162.41 58.9762 162.73 59.296 163.137 59.5285C163.544 59.7538 164.002 59.8664 164.51 59.8664ZM174.743 61.109C173.973 61.109 173.275 60.9419 172.65 60.6076C172.033 60.2661 171.546 59.7974 171.19 59.2015C170.841 58.6056 170.667 57.9335 170.667 57.185C170.667 56.4365 170.845 55.7644 171.201 55.1685C171.557 54.5726 172.044 54.1076 172.661 53.7733C173.286 53.4318 173.984 53.261 174.754 53.261C175.379 53.261 175.949 53.37 176.465 53.588C176.981 53.806 177.417 54.1221 177.773 54.5363L176.858 55.3974C176.306 54.8015 175.626 54.5036 174.82 54.5036C174.296 54.5036 173.828 54.6199 173.413 54.8524C172.999 55.0777 172.676 55.3938 172.443 55.8007C172.211 56.2076 172.095 56.6691 172.095 57.185C172.095 57.7009 172.211 58.1624 172.443 58.5693C172.676 58.9762 172.999 59.296 173.413 59.5285C173.828 59.7538 174.296 59.8664 174.82 59.8664C175.626 59.8664 176.306 59.5648 176.858 58.9617L177.773 59.8337C177.417 60.2479 176.978 60.564 176.455 60.782C175.939 61 175.368 61.109 174.743 61.109ZM185.944 59.8119V61H180.221V53.37H185.791V54.5581H181.638V56.5419H185.322V57.7082H181.638V59.8119H185.944ZM193.605 61L192.047 58.7655C191.981 58.7728 191.883 58.7764 191.752 58.7764H190.03V61H188.613V53.37H191.752C192.414 53.37 192.988 53.479 193.475 53.697C193.969 53.915 194.347 54.2275 194.608 54.6344C194.87 55.0413 195.001 55.5246 195.001 56.0841C195.001 56.6582 194.859 57.1523 194.576 57.5665C194.299 57.9807 193.9 58.2895 193.377 58.493L195.131 61H193.605ZM193.573 56.0841C193.573 55.5972 193.413 55.223 193.093 54.9614C192.773 54.6998 192.305 54.569 191.687 54.569H190.03V57.6101H191.687C192.305 57.6101 192.773 57.4793 193.093 57.2177C193.413 56.9488 193.573 56.571 193.573 56.0841ZM200.861 58.3077V61H199.444V58.3295L196.447 53.37H197.962L200.196 57.0869L202.453 53.37H203.848L200.861 58.3077Z" fill="#253D4E"/>
<path d="M107.92 41H101.68L110.16 18.6H116.56L125.04 41H118.8L117.36 37H109.36L107.92 41ZM110.8 32.84H115.92L113.36 25.32L110.8 32.84ZM133.999 36.52H145.679V41H128.239V18.6H133.999V36.52ZM155.286 36.52H166.966V41H149.526V18.6H155.286V36.52ZM188.574 41H170.814V18.6H188.574V23.08H176.574V27.4H186.014V31.88H176.574V36.52H188.574V41Z" fill="#3BB77E"/>
</svg>
